<svg xmlns="http://www.w3.org/2000/svg" viewBox="0 0 512 512">
  <rect width="512" height="512" fill="#CC785C"/>
    <rect x="80" y="210" width="13" height="13" fill="#F5F1E8"/>
  <rect x="93" y="210" width="13" height="13" fill="#F5F1E8"/>
  <rect x="106" y="210" width="13" height="13" fill="#F5F1E8"/>
  <rect x="67" y="223" width="13" height="13" fill="#F5F1E8"/>
  <rect x="119" y="223" width="13" height="13" fill="#F5F1E8"/>
  <rect x="67" y="236" width="13" height="13" fill="#F5F1E8"/>
  <rect x="67" y="249" width="13" height="13" fill="#F5F1E8"/>
  <rect x="67" y="262" width="13" height="13" fill="#F5F1E8"/>
  <rect x="67" y="275" width="13" height="13" fill="#F5F1E8"/>
  <rect x="119" y="275" width="13" height="13" fill="#F5F1E8"/>
  <rect x="80" y="288" width="13" height="13" fill="#F5F1E8"/>
  <rect x="93" y="288" width="13" height="13" fill="#F5F1E8"/>
  <rect x="106" y="288" width="13" height="13" fill="#F5F1E8"/>
  <rect x="145" y="210" width="13" height="13" fill="#F5F1E8"/>
  <rect x="158" y="210" width="13" height="13" fill="#F5F1E8"/>
  <rect x="171" y="210" width="13" height="13" fill="#F5F1E8"/>
  <rect x="184" y="210" width="13" height="13" fill="#F5F1E8"/>
  <rect x="145" y="223" width="13" height="13" fill="#F5F1E8"/>
  <rect x="197" y="223" width="13" height="13" fill="#F5F1E8"/>
  <rect x="145" y="236" width="13" height="13" fill="#F5F1E8"/>
  <rect x="197" y="236" width="13" height="13" fill="#F5F1E8"/>
  <rect x="145" y="249" width="13" height="13" fill="#F5F1E8"/>
  <rect x="158" y="249" width="13" height="13" fill="#F5F1E8"/>
  <rect x="171" y="249" width="13" height="13" fill="#F5F1E8"/>
  <rect x="184" y="249" width="13" height="13" fill="#F5F1E8"/>
  <rect x="145" y="262" width="13" height="13" fill="#F5F1E8"/>
  <rect x="171" y="262" width="13" height="13" fill="#F5F1E8"/>
  <rect x="145" y="275" width="13" height="13" fill="#F5F1E8"/>
  <rect x="184" y="275" width="13" height="13" fill="#F5F1E8"/>
  <rect x="145" y="288" width="13" height="13" fill="#F5F1E8"/>
  <rect x="197" y="288" width="13" height="13" fill="#F5F1E8"/>
  <rect x="236" y="210" width="13" height="13" fill="#F5F1E8"/>
  <rect x="249" y="210" width="13" height="13" fill="#F5F1E8"/>
  <rect x="262" y="210" width="13" height="13" fill="#F5F1E8"/>
  <rect x="223" y="223" width="13" height="13" fill="#F5F1E8"/>
  <rect x="275" y="223" width="13" height="13" fill="#F5F1E8"/>
  <rect x="223" y="236" width="13" height="13" fill="#F5F1E8"/>
  <rect x="275" y="236" width="13" height="13" fill="#F5F1E8"/>
  <rect x="223" y="249" width="13" height="13" fill="#F5F1E8"/>
  <rect x="275" y="249" width="13" height="13" fill="#F5F1E8"/>
  <rect x="223" y="262" width="13" height="13" fill="#F5F1E8"/>
  <rect x="275" y="262" width="13" height="13" fill="#F5F1E8"/>
  <rect x="223" y="275" width="13" height="13" fill="#F5F1E8"/>
  <rect x="275" y="275" width="13" height="13" fill="#F5F1E8"/>
  <rect x="236" y="288" width="13" height="13" fill="#F5F1E8"/>
  <rect x="249" y="288" width="13" height="13" fill="#F5F1E8"/>
  <rect x="262" y="288" width="13" height="13" fill="#F5F1E8"/>
  <rect x="301" y="210" width="13" height="13" fill="#F5F1E8"/>
  <rect x="353" y="210" width="13" height="13" fill="#F5F1E8"/>
  <rect x="301" y="223" width="13" height="13" fill="#F5F1E8"/>
  <rect x="314" y="223" width="13" height="13" fill="#F5F1E8"/>
  <rect x="353" y="223" width="13" height="13" fill="#F5F1E8"/>
  <rect x="301" y="236" width="13" height="13" fill="#F5F1E8"/>
  <rect x="314" y="236" width="13" height="13" fill="#F5F1E8"/>
  <rect x="353" y="236" width="13" height="13" fill="#F5F1E8"/>
  <rect x="301" y="249" width="13" height="13" fill="#F5F1E8"/>
  <rect x="327" y="249" width="13" height="13" fill="#F5F1E8"/>
  <rect x="353" y="249" width="13" height="13" fill="#F5F1E8"/>
  <rect x="301" y="262" width="13" height="13" fill="#F5F1E8"/>
  <rect x="340" y="262" width="13" height="13" fill="#F5F1E8"/>
  <rect x="353" y="262" width="13" height="13" fill="#F5F1E8"/>
  <rect x="301" y="275" width="13" height="13" fill="#F5F1E8"/>
  <rect x="340" y="275" width="13" height="13" fill="#F5F1E8"/>
  <rect x="353" y="275" width="13" height="13" fill="#F5F1E8"/>
  <rect x="301" y="288" width="13" height="13" fill="#F5F1E8"/>
  <rect x="353" y="288" width="13" height="13" fill="#F5F1E8"/>
  <rect x="379" y="210" width="13" height="13" fill="#F5F1E8"/>
  <rect x="431" y="210" width="13" height="13" fill="#F5F1E8"/>
  <rect x="379" y="223" width="13" height="13" fill="#F5F1E8"/>
  <rect x="418" y="223" width="13" height="13" fill="#F5F1E8"/>
  <rect x="379" y="236" width="13" height="13" fill="#F5F1E8"/>
  <rect x="405" y="236" width="13" height="13" fill="#F5F1E8"/>
  <rect x="379" y="249" width="13" height="13" fill="#F5F1E8"/>
  <rect x="392" y="249" width="13" height="13" fill="#F5F1E8"/>
  <rect x="379" y="262" width="13" height="13" fill="#F5F1E8"/>
  <rect x="405" y="262" width="13" height="13" fill="#F5F1E8"/>
  <rect x="379" y="275" width="13" height="13" fill="#F5F1E8"/>
  <rect x="418" y="275" width="13" height="13" fill="#F5F1E8"/>
  <rect x="379" y="288" width="13" height="13" fill="#F5F1E8"/>
  <rect x="431" y="288" width="13" height="13" fill="#F5F1E8"/>
</svg>
